<?xml version="1.0" encoding="utf-8"?>
<!-- Generator: Adobe Illustrator 23.0.6, SVG Export Plug-In . SVG Version: 6.00 Build 0)  -->
<svg version="1.1" id="Capa_1" xmlns="http://www.w3.org/2000/svg" xmlns:xlink="http://www.w3.org/1999/xlink" x="0px" y="0px"
	 viewBox="0 0 150 98.2" style="enable-background:new 0 0 150 98.2;" xml:space="preserve">
<g>
	<g>
		<g>
			<path d="M62,47.5c3.1-1.5,5.4-3.2,7-5.1c2.8-3.4,4.2-7.8,4.2-13.3c0-5.4-1.3-10-4.2-13.7c-4.7-6.2-12.5-9.4-23.7-9.5H1.2v90h41.2
				c4.6,0,8.9-0.4,12.9-1.2c3.9-0.8,7.4-2.3,10.4-4.6c2.6-1.9,4.7-4.3,6.5-7.1c2.7-4.2,4-9,4-14.4c0-5.1-1.2-9.5-3.5-13.2
				C70,51.8,66.5,49.2,62,47.5z M19.3,21.4h19.9c4.3,0,7.9,0.4,10.8,1.3c3.2,1.3,4.8,4.2,4.8,8.3c0,3.8-1.2,6.5-3.8,7.9
				c-2.4,1.5-5.6,2.3-9.7,2.3H19.3V21.4z M50.8,78.6c-2.2,1.1-5.2,1.6-9.3,1.6H19.3V56.2h22.5c3.9,0,7,0.5,9.1,1.5
				c3.9,1.7,5.8,5,5.8,9.7C56.7,72.9,54.8,76.7,50.8,78.6z"/>
			<rect x="95.6" y="10" width="39.1" height="11.2"/>
			<path d="M148.2,54.2c-0.8-5.2-2.6-9.8-5.4-13.7c-3.1-4.4-7-7.8-11.7-9.8c-4.7-2.2-10-3.1-15.9-3.1c-9.8,0-17.9,3.1-24.1,9.3
				s-9.3,15.1-9.3,26.5c0,12.2,3.4,21.3,10.4,26.6c6.9,5.5,14.8,8.2,23.8,8.2c10.9,0,19.4-3.2,25.4-9.7c3.9-4,6.1-8.1,6.6-12h-18
				c-1.1,1.9-2.3,3.5-3.6,4.6c-2.6,2-5.8,3.1-9.8,3.1c-3.8,0-7-0.8-9.7-2.6c-4.4-2.7-6.7-7.4-7.1-14h49.1
				C148.8,61.6,148.7,57.3,148.2,54.2z M100,56c0.7-4.3,2.2-7.8,4.7-10.4c2.6-2.6,6.1-3.8,10.5-3.8c4.2,0,7.7,1.2,10.5,3.6
				c2.8,2.4,4.4,5.9,4.7,10.5H100z"/>
		</g>
	</g>
</g>
</svg>
