<?xml version="1.0" encoding="utf-8"?>
<!-- Generator: Adobe Illustrator 23.0.6, SVG Export Plug-In . SVG Version: 6.00 Build 0)  -->
<svg version="1.1" id="Bold" xmlns="http://www.w3.org/2000/svg" xmlns:xlink="http://www.w3.org/1999/xlink" x="0px" y="0px"
	 viewBox="0 0 150 150" style="enable-background:new 0 0 150 150;" xml:space="preserve">
<g>
	<path d="M150,150L150,150L150,150l0-55c0-26.9-5.8-47.6-37.3-47.6c-15.1,0-25.3,8.3-29.4,16.2h-0.4V49.8H53.1V150h31.1v-49.6
		c0-13.1,2.5-25.7,18.6-25.7c15.9,0,16.2,14.9,16.2,26.5V150L150,150z"/>
	<path d="M2.5,49.9h31.1V150H2.5L2.5,49.9z"/>
	<path d="M18,0C8.1,0,0,8.1,0,18s8.1,18.2,18,18.2S36,28,36,18C36,8.1,28,0,18,0z"/>
</g>
</svg>
